<svg xmlns="http://www.w3.org/2000/svg" width="8" height="7" viewBox="0 0 8 7">
    <g fill="#E0ECF3" fill-rule="nonzero">
        <path d="M3.78 2.935a.587.587 0 0 0-.42.173.594.594 0 1 0 .84.84.587.587 0 0 0 .206-.42.594.594 0 0 0-.593-.593h-.034z"/>
        <path d="M4.406 1.94H3.14a.954.954 0 0 0-.947.961v1.26c.007.522.432.941.954.941h1.26a.954.954 0 0 0 .954-.954V2.901a.954.954 0 0 0-.954-.96zm0 2.248a.954.954 0 0 1-.667.274.934.934 0 0 1-.934-.934.934.934 0 0 1 .94-.94c.517 0 .935.418.935.934a.934.934 0 0 1-.24.666h-.034zm.367-1.333a.22.22 0 1 1 .213-.22.22.22 0 0 1-.18.2l-.033.02z"/>
        <path d="M5.166.027C3.44-.3-.609 2.434.078 4.649c.467 1.52 5.055 2.788 6.209 2C7.441 5.864 7.954.548 5.167.028zm.574 4.135a1.3 1.3 0 0 1-1.334 1.294H3.14a1.3 1.3 0 0 1-1.294-1.294v-1.26a1.294 1.294 0 0 1 1.294-1.3L4.406 1.6c.343 0 .672.137.914.38.255.24.406.57.42.92v1.26z"/>
    </g>
</svg>
