<svg xmlns="http://www.w3.org/2000/svg" width="202" height="48" viewBox="0 0 202 48">
    <g fill="none" fill-rule="nonzero">
        <path fill="#4D4D4F" d="M30.93 31.389h1.014v-5.863H30.93v5.863zm38.929-5.863h1.483v1.009h-.47v4.854h-6.714a2.217 2.217 0 0 1-1.618.69 2.19 2.19 0 0 1-1.58-.69H37.09a2.039 2.039 0 1 1 0-4.072h.582v-.361h1.008v3.419h6.364v-3.037h1.014v3.058h6.974v-1.224a.54.54 0 0 0-.54-.54h-3.31l-.351-1.002 1.175-2.125h1.079l-1.122 2.125h2.659c.771 0 1.397.625 1.397 1.397v1.326h2.626V25.5h1.014v4.854h2.762a1.812 1.812 0 0 1-.049-.458 2.179 2.179 0 1 1 4.31.458h2.653V25.5h1.014v4.854h1.488l.022-4.827zm-32.187 2.805h-.583a1.025 1.025 0 1 0 0 2.044h.583V28.33zm26.06 1.57a1.17 1.17 0 1 0-1.186 1.164 1.149 1.149 0 0 0 1.186-1.165zm10.458-.54a2.033 2.033 0 0 1 2.033-2.039h.582v-.361h1.014v3.42h5.868v-3.043h1.014v4.072h-8.467a2.033 2.033 0 0 1-2.034-2.054l-.01.005zm1.014 0c0 .563.456 1.02 1.019 1.02h.582v-2.045h-.582a1.02 1.02 0 0 0-1.009 1.02l-.01.005zm39.538 2.033h1.014v-5.868h-1.004l-.01 5.868zm16.04-5.172h-.999v-.194c0-.232.103-.361.394-.361h.372v-.324h-.431c-.567 0-.912.243-.912.895v.54h1.575v-.556zm-11.915 3.139a2.033 2.033 0 0 1 2.034-2.023h.582v-.36h1.036v3.418h7.01v-3.058h1.015v3.058h3.425v-3.058h1.013v3.058h3.317a1.553 1.553 0 1 1 2.826 0h.675a2.184 2.184 0 0 0-2.087-2.831c-.42 0-.83.121-1.182.35l-.54-.89a3.204 3.204 0 0 1 1.743-.512 3.236 3.236 0 0 1 3.171 3.878h2.977v-4.854h1.483v1.009h-.469V31.4h-25.995a2.033 2.033 0 0 1-2.023-2.044l-.01.005zm20.198.377a.642.642 0 1 0 .642-.641.642.642 0 0 0-.631.636l-.01.005zm-19.189-.377c.003.564.46 1.02 1.025 1.02h.582v-2.045h-.582c-.56.006-1.011.46-1.014 1.02l-.011.005zm28.212-3.83v5.863h1.014v-5.868l-1.014.006zM7.642 32.388a.54.54 0 1 0 1.079 0 .54.54 0 0 0-1.079 0zm1.726-.54a.54.54 0 1 0 .38.156.54.54 0 0 0-.385-.156h.005zm15.414-5.393a.54.54 0 1 0-.54-.54.54.54 0 0 0 .535.556l.005-.016zm20.09 5.393a.54.54 0 1 0 .376.152.54.54 0 0 0-.392-.152h.016zm1.731.54a.54.54 0 1 0-.54.539.54.54 0 0 0 .535-.54h.005zm74.147-5.933a.54.54 0 1 0-.54-.54.54.54 0 0 0 .534.556l.006-.016zm1.18 0a.54.54 0 1 0-.539-.54.54.54 0 0 0 .534.556l.006-.016zm-38.95 5.393a.54.54 0 1 0 .38.156.54.54 0 0 0-.385-.156h.006zm1.727.54a.54.54 0 1 0-.54.539.54.54 0 0 0 .534-.54h.006zm49.143-.54a.54.54 0 1 0 .38.156.54.54 0 0 0-.386-.156h.006zm.642.54a.54.54 0 1 0 .539-.54.54.54 0 0 0-.545.54h.006zm-58.42-5.933a.54.54 0 1 0-.54-.54.54.54 0 0 0 .535.556l.005-.016zm1.181 0a.54.54 0 1 0-.54-.54.54.54 0 0 0 .535.556l.005-.016zm11.865 2.244c0-.772-.625-1.397-1.397-1.397h-.943l-.243 1.008h1.052a.54.54 0 0 1 .539.54v1.531h-2.589v1.014h3.603l-.022-2.696zm-52.217-2.244a.54.54 0 1 0-.54-.54.54.54 0 0 0 .556.556l-.016-.016zm1.186 0a.54.54 0 1 0-.54-.54.54.54 0 0 0 .556.556l-.016-.016zm-35.698 0a.54.54 0 1 0-.54-.54.54.54 0 0 0 .556.556l-.016-.016zm1.181 0a.54.54 0 1 0-.539-.54.54.54 0 0 0 .556.556l-.017-.016zM.523 29.339a2.033 2.033 0 0 1 2.05-2h.582v-.362H4.17v3.42h4.6v-3.059H9.8v4.072H2.574a2.033 2.033 0 0 1-2.034-2.054l-.016-.017zm1.009 0c.003.564.46 1.02 1.024 1.02h.583v-2.044h-.566a1.025 1.025 0 0 0-1.025 1.04l-.016-.016zm9.589 3.625a1.98 1.98 0 0 1-.54-.065v-.976c.133.029.27.043.405.043.405 0 .54-.205.54-.707v-3.92h1.013v3.057h6.418v-1.224a.54.54 0 0 0-.539-.54h-3.225l-.35-1.002 1.175-2.125h1.079l-1.122 2.125h2.659c.771 0 1.397.625 1.397 1.397v1.326h2.826a1.98 1.98 0 0 1-.28-1.02c0-1.125.912-2.038 2.038-2.038H26.2v3.058h2.476V25.5h1.483v1.009h-.47v4.854H12.578c-.054 1.143-.485 1.618-1.44 1.618l-.016-.016zm12.442-3.625c0 .563.457 1.02 1.02 1.02h.577v-2.044h-.572a1.025 1.025 0 0 0-1.009 1.04l-.016-.016zm68.85 2.034h-.539a2.039 2.039 0 1 1 0-4.072h1.586v3.058h3.036l-.9-2.298a3.436 3.436 0 0 1 2.222-1.025 3.338 3.338 0 0 1 2.227 1.03l-.868 2.293h2.61a1.02 1.02 0 0 0 1.02-1.02v-2.615h1.013v2.615a1.025 1.025 0 1 0 2.05 0v-1.73h1.008v1.747a1.025 1.025 0 0 0 2.05 0V26.74h1.014v2.616c.003.563.46 1.019 1.024 1.019h1.564V25.52h1.483v1.008h-.469v4.854h-2.578a2.022 2.022 0 0 1-1.531-.695 2.028 2.028 0 0 1-3.058 0 2.033 2.033 0 0 1-3.064 0c-.384.442-.94.695-1.526.695h-8.349c-.075.95-.54 1.591-1.844 1.591a3.35 3.35 0 0 1-1.079-.172v-.998c.317.102.648.154.982.156.582.006.868-.064.933-.571l-.017-.016zm4.315-2.88l.658 1.866h.863l.658-1.872a1.737 1.737 0 0 0-2.184 0l.005.006zm-4.282 1.866v-2.044h-.572a1.025 1.025 0 1 0 0 2.044h.572zM9.034 38.033v2.292c-.549.206-1.13.31-1.715.308-.987 0-1.866-.34-1.866-1.305 0-.88.76-1.338 1.833-1.338.257.001.513.021.766.06v-.06c0-.448-.367-.572-.906-.572-.48.025-.952.144-1.386.351l.124-1.003a3.473 3.473 0 0 1 1.392-.291c1.013 0 1.758.41 1.758 1.558zm-.982.81a2.826 2.826 0 0 0-.663-.082c-.496 0-.917.124-.917.502 0 .377.377.49.863.49.243 0 .485-.038.717-.113v-.798zm4.315.738c-.24.065-.486.098-.734.097-.54 0-.776-.216-.776-.938v-2.125h-.95v2.405c0 1.224.777 1.618 1.78 1.618a4.8 4.8 0 0 0 1.688-.286v-3.737h-.981l-.027 2.966zm4.611-4.703h.976v5.555a6.094 6.094 0 0 1-1.58.2c-1.456 0-2.298-.895-2.298-2.066a2.076 2.076 0 0 1 2.222-2.092c.228.005.455.023.68.054v-1.65zm0 2.638a2.26 2.26 0 0 0-.61-.081c-.77 0-1.267.366-1.267 1.132 0 .766.496 1.111 1.268 1.111.205-.002.41-.03.609-.08v-2.082zm2.039 3.036h1.03v-3.937h-.982l-.048 3.937zm11.892-.97c-.24.064-.486.097-.734.096-.539 0-.776-.216-.776-.938v-2.125h-.977v2.405c0 1.224.777 1.618 1.78 1.618a4.8 4.8 0 0 0 1.688-.286v-3.737h-.981v2.966zm3.338-.632v-1.43h1.494v-.905h-1.494v-1.44h-.981v1.44h-.74v.906h.74v1.78c0 .943.485 1.25 1.574 1.25h.928v-.91h-.825c-.49 0-.669-.162-.669-.69h-.027zm4.104-2.475a5.124 5.124 0 0 0-.792.08V34.89h-.955v5.663h.982V37.51c.247-.046.498-.07.75-.075.576 0 .878.215.878.933v2.184h.982v-2.465c0-1.289-.814-1.612-1.812-1.612h-.033zm6.731 2.081a2.157 2.157 0 1 1-2.13-2.081 2.066 2.066 0 0 1 2.157 2.081h-.027zm-1.03 0a1.079 1.079 0 1 0-1.079 1.122 1.079 1.079 0 0 0 1.106-1.122h-.027zm4.746 1.996h.982v-3.937h-.982v3.937zm3.333-1.618v-1.43h1.494v-.89h-1.494v-1.44h-.981v1.44h-.74v.907h.74v1.78c0 .943.485 1.25 1.574 1.25h.928v-.91h-.825c-.49 0-.669-.162-.669-.69l-.027-.017zm4.72.54a2.48 2.48 0 0 1-.734.107c-.54 0-.777-.216-.777-.938v-2.066h-.987v2.346c0 1.295.712 1.618 1.71 1.618.264 0 .528-.028.787-.08v.08c0 .464-.426.658-1.03.658a4.142 4.142 0 0 1-1.386-.291l.21 1.02c.37.105.75.165 1.133.177 1.559 0 2.05-.485 2.05-1.877v-3.646h-.977v2.891zm4.416-3.264v.378h-.717v.906h.744v3.03h.977v-3.03h1.499v-.88h-1.5v-.199c0-.426.092-.625.6-.625h.927v-.901h-.939c-1.089 0-1.564.404-1.564 1.348l-.027-.027zm7.012 2.32a2.157 2.157 0 1 1-2.158-2.082 2.071 2.071 0 0 1 2.174 2.108l-.016-.027zm-1.03 0a1.106 1.106 0 1 0-1.106 1.121 1.079 1.079 0 0 0 1.122-1.095l-.016-.027zm10.576-2.082a12.13 12.13 0 0 0-1.77.2v3.877h.982v-3.042c.248-.046.498-.07.75-.075.577 0 .88.215.88.933v2.184h.975V38.06c.016-1.262-.809-1.585-1.801-1.585l-.016-.027zm4.099 2.475v-1.43h1.494v-.878h-1.494v-1.44h-.982v1.44h-.739v.906h.739v1.78c0 .943.485 1.25 1.575 1.25h.933v-.91h-.825c-.502 0-.685-.162-.685-.69l-.016-.028zm5.986-.07h-3.123c.137.528.647.87 1.187.798h.102c.412.005.815-.118 1.155-.35l.431.873a3.36 3.36 0 0 1-1.72.432 2.066 2.066 0 0 1-2.158-2.077 2.039 2.039 0 0 1 2.087-2.081c1.23.027 2.13.916 2.055 2.432l-.016-.027zm-.987-.782a.933.933 0 0 0-1.02-.728 1.03 1.03 0 0 0-1.035.728h2.055zm1.72 2.48h.977V34.89h-.976v5.663zm2.04 0h.98V34.89h-.98v5.663zm5.835-1.671h-3.123c.137.528.646.87 1.187.798h.102c.412.005.815-.118 1.154-.35l.432.873a3.36 3.36 0 0 1-1.72.432 2.066 2.066 0 0 1-2.158-2.077 2.039 2.039 0 0 1 2.087-2.081c1.187 0 2.06.89 2.012 2.405h.027zm-1.03-.809a.933.933 0 0 0-1.02-.728 1.03 1.03 0 0 0-1.073.728h2.093zm3.64-.636c.327-.002.649.081.933.242l.394-.879c-.421-.22-.89-.33-1.365-.323a2.082 2.082 0 1 0 0 4.158c.474.01.943-.097 1.365-.313l-.394-.89a1.769 1.769 0 0 1-.933.248 1.122 1.122 0 1 1 0-2.243zm3.312 1.515v-1.43h1.493v-.905h-1.493v-1.44h-1.009v1.44h-.739v.906h.739v1.78c0 .943.485 1.25 1.575 1.25h.927v-.91h-.83c-.512 0-.69-.162-.69-.69h.027zm4.708.631c-.24.065-.486.098-.734.097-.539 0-.776-.216-.776-.938v-2.125h-.976v2.405c0 1.224.776 1.618 1.78 1.618a4.8 4.8 0 0 0 1.687-.286v-3.737h-.981v2.966zm5.393-1.548v2.292c-.548.205-1.13.31-1.715.308-.987 0-1.866-.34-1.866-1.305 0-.88.76-1.338 1.828-1.338.258.001.516.021.772.06v-.06c0-.448-.373-.572-.912-.572a3.63 3.63 0 0 0-1.38.351l.123-1.003a3.452 3.452 0 0 1 1.392-.291c1.003 0 1.747.41 1.747 1.558h.011zm-.981.81a2.864 2.864 0 0 0-.664-.082c-.496 0-.917.124-.917.502 0 .377.378.49.858.49.245 0 .489-.038.723-.113v-.798zm1.963 1.709h.981v-5.663h-.992l.01 5.663zm15.824-1.996a2.157 2.157 0 1 1-2.158-2.081 2.066 2.066 0 0 1 2.147 2.081h.01zm-1.03 0a1.079 1.079 0 1 0-1.106 1.122 1.079 1.079 0 0 0 1.095-1.122h.01zm5.635 0a2.066 2.066 0 0 1-2.222 2.082c-.227 0-.454-.018-.68-.054v1.51h-.98v-5.393a5.684 5.684 0 0 1 1.58-.21c1.445-.016 2.292.884 2.292 2.06l.01.005zm-1.019 0c0-.76-.496-1.116-1.267-1.116a2.837 2.837 0 0 0-.615.08v2.083c.2.052.407.08.615.08.76-.005 1.256-.377 1.256-1.132l.011.005zm5.641.33h-3.112c.137.525.643.867 1.182.798h.102c.412.004.815-.118 1.154-.351l.437.874a3.376 3.376 0 0 1-1.72.431 2.066 2.066 0 0 1-2.158-2.076 2.044 2.044 0 0 1 2.093-2.082c1.186-.005 2.06.884 2.012 2.4l.01.005zm-1.03-.81a.928.928 0 0 0-1.02-.728 1.03 1.03 0 0 0-1.062.723l2.082.005zm6.008.874v-1.43h1.494v-.905h-1.494v-1.44h-.981v1.44h-.74v.906h.74v1.78c0 .943.485 1.25 1.575 1.25h.933v-.91h-.826c-.528 0-.7-.162-.7-.69zm4.59.54a2.46 2.46 0 0 1-.733.107c-.54 0-.777-.215-.777-.938v-2.066h-.982v2.346c0 1.295.712 1.618 1.71 1.618.263 0 .525-.028.782-.08v.08c0 .464-.426.658-1.025.658a4.115 4.115 0 0 1-1.386-.291l.21 1.02c.37.105.75.165 1.133.177 1.559 0 2.05-.485 2.05-1.877V36.6h-.982v2.89zm-79.124-1.856v2.918h.981v-2.767a.291.291 0 0 1 .297-.296h.987v-.939h-1.198c-.593.006-1.07.49-1.067 1.084zm-23.191 0v2.918h.976v-2.767c0-.164.133-.296.296-.296h1.014v-.939h-1.202a1.079 1.079 0 0 0-1.074 1.084h-.01zm76.584 0v2.918h.981v-2.767a.291.291 0 0 1 .297-.296h.987v-.939h-1.197c-.594.006-1.071.49-1.068 1.084zm16.805 0v2.918h.982v-2.767a.291.291 0 0 1 .296-.296h1.009v-.939h-1.187a1.079 1.079 0 0 0-1.078 1.084h-.022zM19.534 34.938a.54.54 0 1 0 .54.539.54.54 0 0 0-.54-.545v.006zm29.782 0a.54.54 0 1 0 .54.539.54.54 0 0 0-.54-.545v.006z"/>
        <path fill="#006E63" d="M4.87 38.945c0 1.078-.954 1.688-2.243 1.688a4.369 4.369 0 0 1-2.088-.502l.394-.89c.509.287 1.082.44 1.667.443.684 0 1.208-.222 1.208-.75 0-.529-.426-.636-1.079-.798l-.47-.119C1.23 37.77.702 37.165.702 36.33c0-.922.825-1.553 2.055-1.553a4.185 4.185 0 0 1 1.985.507l-.4.89a3.177 3.177 0 0 0-1.617-.443c-.54 0-1.009.21-1.009.62 0 .41.27.572.9.734l.475.119c.993.237 1.78.728 1.78 1.742zm21.06-4.056l2.099 5.674H26.95l-.431-1.36h-2.352l-.474 1.338h-1.08l2.094-5.652h1.224zm.227 3.392l-.841-2.357-.841 2.357h1.682zm95.763-1.655c0 .943-.674 1.817-2.082 1.817h-1.095v2.12h-1.008v-5.674h2.087c1.467 0 2.098.836 2.098 1.726v.01zm-1.079 0c0-.54-.393-.82-1.23-.82h-.868v1.677h.901c.717.01 1.208-.189 1.208-.847l-.01-.01zM74.028 40.54h.981V34.89h-.981v5.652z"/>
        <path fill="#0065A1" d="M192.782 16.606c1.143-5.895 2.254-11.865-2.583-14.217-8.214-3.985-29.124-3.818-31.475 7.011-.448 2.071.431 5.723 1.855 9.11.54-3.625 3.737-9.169 18.062-10.075 9.136-.61 12.911 3.058 14.141 8.17z"/>
        <path fill="#006E63" d="M201.325 10.506c-.13-4.034-4.126-6.434-8.883-7.874.527.459.99.985 1.38 1.564 1.15 1.731 1.187 5.204.659 8.829-3.727 25.44-13.435 24.944-14.265 24.97 10.581 3.603 14.562-5.204 15.058-6.175.27-.512 6.353-11.854 6.05-21.314z"/>
        <path fill="#006E63" d="M181.844 17.453a8.09 8.09 0 0 1 6.866 2.012 8.09 8.09 0 0 0-7.308-4.569c-.226 0-.453 0-.68.027a5.722 5.722 0 0 1 2.875-2.157 5.496 5.496 0 0 0-4.854 1.796v-.248a5.005 5.005 0 0 0-.857-2.821 5.043 5.043 0 0 0-.852 2.82v.249a5.496 5.496 0 0 0-4.854-1.796 5.722 5.722 0 0 1 2.874 2.157c-.226 0-.453-.027-.68-.027a8.128 8.128 0 0 0-7.312 4.568 8.09 8.09 0 0 1 5.485-2.13c.464.001.928.04 1.386.119a8.155 8.155 0 0 0-3.954 5.031 8.09 8.09 0 0 1 5.669-3.24l2.265 2.264 2.27-2.265c.232 0 .459.06.69.103a8.09 8.09 0 0 1 4.979 3.138 8.155 8.155 0 0 0-4.008-5.031z"/>
        <circle cx="177.891" cy="26.206" r="1.041" fill="#006E63"/>
        <circle cx="177.891" cy="28.6" r="1" fill="#006E63"/>
        <circle cx="177.891" cy="23.38" r="1.305" fill="#006E63"/>
        <path fill="#006E63" d="M186.348 27.991a18.618 18.618 0 0 0-12.944 5.22h1.78a1.882 1.882 0 0 0 1.235-.474 18.66 18.66 0 0 1 12.663-4.546c-.905-.133-1.82-.2-2.734-.2z"/>
        <path fill="#006E63" d="M169.44 27.991a18.618 18.618 0 0 1 12.944 5.22h-1.78a1.882 1.882 0 0 1-1.235-.474 18.66 18.66 0 0 0-12.663-4.546c.905-.133 1.819-.2 2.734-.2z"/>
        <path fill="#00A19B" d="M157.575 11.698c-1.537 1.526-4.752 5.34-4.018 9.902.954 5.933 14.945 25.974 25.283 25.974 5.049 0 8.937-3.775 12.944-9.708-8.521 7.583-30.03-3.754-34.21-26.168z"/>
    </g>
</svg>
