<svg xmlns="http://www.w3.org/2000/svg" width="7" height="8" viewBox="0 0 7 8">
    <path fill="#E0ECF3" fill-rule="nonzero" d="M1.523.365c-1.447.973-2.394 5.762-.327 6.862 1.4.747 5.543-1.6 5.816-2.96.273-1.361-3.148-5.51-5.489-3.902zm3.488 4.268c0 .087-.187.147-.467.193a.233.233 0 0 0 0 .08v.087a.087.087 0 0 1-.086.06h-.08a.78.78 0 0 0-.194 0h-.133a.62.62 0 0 0-.254.134.827.827 0 0 1-.487.193h-.046a.814.814 0 0 1-.487-.193.667.667 0 0 0-.254-.134h-.14a.667.667 0 0 0-.186 0h-.08a.087.087 0 0 1-.087-.06v-.08a.22.22 0 0 0 0-.087c-.28-.046-.427-.106-.467-.193a.047.047 0 0 1 0-.033.08.08 0 0 1-.04-.074 1.06 1.06 0 0 0 .714-.593.147.147 0 0 0 0-.127c0-.067-.127-.1-.194-.12H1.99c-.167-.067-.187-.14-.18-.193a.18.18 0 0 1 .193-.154h.06c.049.03.104.045.16.047a.127.127 0 0 0 .067 0v-.047a1.68 1.68 0 0 1 .04-.72.947.947 0 0 1 .88-.614h.067a.947.947 0 0 1 .914.58 1.78 1.78 0 0 1 0 .754v.08h.06a.56.56 0 0 0 .16-.08h.14a.167.167 0 0 1 .113.127c0 .067-.06.127-.18.173h-.053c-.067 0-.173.054-.2.12a.153.153 0 0 0 0 .127c.13.297.391.517.707.594a.08.08 0 0 1 .066.073s.014.073.007.08z"/>
</svg>
