<svg xmlns="http://www.w3.org/2000/svg" width="8" height="7" viewBox="0 0 8 7">
    <path fill="#E0ECF3" fill-rule="nonzero" d="M7.13 2.24C6.67.728 2.08-.546.926.24c-1.154.787-1.668 6.116 1.12 6.67 1.728.28 5.803-2.428 5.082-4.67zm-2.168.408v.106A2.274 2.274 0 0 1 1.46 4.67h.194c.36 0 .71-.12.994-.34a.794.794 0 0 1-.747-.567h.146c.071.01.143.01.214 0a.8.8 0 0 1-.667-.787c.117.07.25.112.387.12a.8.8 0 0 1-.247-1.068c.411.49 1.008.785 1.647.814a.827.827 0 0 1 0-.18.8.8 0 0 1 .8-.8c.221-.002.432.09.58.253.179-.038.35-.103.508-.193a.76.76 0 0 1-.347.44c.159-.019.314-.061.46-.127a1.687 1.687 0 0 1-.42.414z"/>
</svg>
